<svg xmlns="http://www.w3.org/2000/svg" viewBox="541 466 40 40" width="40" height="40"><path d="M551.955 488.439C552.976 487.791 553.654 486.653 553.654 485.354C553.654 483.334 552.016 481.696 549.996 481.696C547.976 481.696 546.338 483.334 546.338 485.354C546.338 486.653 547.018 487.791 548.037 488.439C545.002 489.293 542.776 492.079 542.776 495.387C542.776 499.375 557.216 499.375 557.216 495.387C557.216 492.079 554.99 489.293 551.955 488.439" fill="#EE8B22"/><path d="M579.741 487.91L572.759 480.928L572.759 476.323C572.759 475.749 572.294 475.284 571.719 475.284C571.145 475.284 570.68 475.749 570.68 476.323L570.68 478.85L565.754 473.924C565.349 473.519 564.691 473.519 564.286 473.924L557.29 480.92C557.888 481.296 558.369 481.836 558.672 482.477L565.021 476.128L578.274 489.38C578.475 489.582 578.742 489.685 579.007 489.685C579.272 489.685 579.539 489.584 579.741 489.38C580.147 488.973 580.147 488.315 579.741 487.91" fill="#037474"/><path d="M576.769 489.102L565.756 478.089C565.56 477.893 565.297 477.783 565.021 477.783C564.746 477.783 564.482 477.893 564.287 478.089L558.97 483.406C559.008 483.617 559.031 483.834 559.031 484.056C559.031 484.532 558.941 484.993 558.772 485.42C560.263 486.504 561.204 488.263 561.204 490.179C561.204 490.847 560.903 492.356 558.373 493.084C558.577 493.824 558.688 494.596 558.688 495.388C558.688 496.484 558.168 497.342 557.329 498.004L560.826 498.004C561.522 498.004 562.193 497.71 562.668 497.195C563.1 496.729 563.337 496.124 563.337 495.492L563.337 491.544C563.337 490.586 564.072 489.786 565.02 489.696C565.969 489.786 566.703 490.587 566.703 491.544L566.703 495.492C566.703 496.124 566.941 496.729 567.371 497.195C567.845 497.71 568.517 498.004 569.214 498.004L574.59 498.004C575.974 498.004 577.101 496.878 577.101 495.492L577.101 490.116C577.101 489.959 577.086 489.799 577.055 489.64C577.015 489.436 576.916 489.249 576.769 489.102" fill="#037474"/><path d="M553.361 488.18C555.008 488.95 556.322 490.264 557.116 491.86C558.583 491.616 559.733 491.056 559.733 490.179C559.733 488.16 558.374 486.46 556.522 485.938C557.145 485.542 557.56 484.848 557.56 484.055C557.56 482.823 556.56 481.823 555.328 481.823C554.585 481.823 553.93 482.187 553.524 482.743C554.067 483.474 554.391 484.376 554.391 485.353C554.391 486.406 554.019 487.399 553.361 488.18" fill="#EE8B22"/></svg>