<svg xmlns="http://www.w3.org/2000/svg" viewBox="449 466 40 40" width="40" height="40"><path d="M480.233 472.985C479.758 472.985 479.442 472.669 479.442 472.194C479.442 471.719 479.758 471.403 480.233 471.403C480.708 471.403 481.024 471.719 481.024 472.194C481.024 472.669 480.708 472.985 480.233 472.985M484.663 469.978L480.233 468.16L475.803 469.899L473.113 472.668L473.113 476.145C472.997 476.14 472.353 476.12 471.531 476.102L471.531 475.358C471.531 474.884 471.215 474.567 470.74 474.567C470.265 474.567 469.948 474.884 469.948 475.358L469.948 476.086C469.171 476.085 468.382 476.098 467.575 476.129L467.575 475.358C467.575 474.884 467.259 474.567 466.784 474.567C466.309 474.567 465.993 474.884 465.993 475.358L465.993 476.205C464.826 476.269 463.774 476.35 462.829 476.445L462.829 475.358C462.829 474.884 462.512 474.567 462.038 474.567C461.563 474.567 461.246 474.884 461.246 475.358L461.246 476.616C460.144 476.752 459.27 476.882 458.831 476.95L458.828 476.95L458.824 476.951C458.542 476.998 458.348 477.041 458.082 477.087L458.082 475.675C458.082 475.2 457.766 474.884 457.291 474.884C456.816 474.884 456.5 475.2 456.5 475.675L456.5 477.38C454.655 477.738 453.349 478.049 452.544 478.268L452.544 476.624C452.544 476.149 452.228 475.832 451.753 475.832C451.278 475.832 450.962 476.149 450.962 476.624L450.962 486.038C451.516 485.643 451.991 485.247 452.544 484.93L452.544 479.903C453.201 479.714 454.532 479.375 456.5 478.985L456.5 482.321C456.5 482.479 456.579 482.558 456.579 482.716C457.053 482.479 457.528 482.32 458.082 482.162L458.082 478.696C458.432 478.634 458.698 478.575 459.08 478.512C459.494 478.448 460.283 478.333 461.246 478.211L461.246 481.054L461.246 481.213L461.325 481.213C461.8 481.055 462.275 480.897 462.829 480.738L462.829 478.034C463.765 477.938 464.821 477.855 465.993 477.79L465.993 480.026C466.468 479.947 467.022 479.867 467.575 479.788L467.575 477.712C468.373 477.679 469.165 477.666 469.948 477.668L469.948 479.471C470.186 479.471 470.424 479.393 470.582 479.393L471.531 479.393L471.531 477.684C472.336 477.702 473.037 477.724 473.113 477.727L473.113 479.314C474.142 479.314 475.091 479.314 476.278 479.393L476.278 475.358C476.278 474.884 476.594 474.567 477.069 474.567L483.397 474.567C483.872 474.567 484.188 474.884 484.188 475.358L484.188 479.947C485.217 480.027 486.324 480.185 487.353 480.343L487.353 472.668L484.663 469.978" fill="#EE8B22"/><path d="M472.638 481.054C469.315 482.636 466.072 484.457 463.145 486.672C458.873 489.757 455.313 493.316 451.279 498.38L450.961 498.696L450.961 500.866C450.961 502.508 452.292 503.839 453.934 503.839L458.003 503.839L458.081 503.6C458.556 502.335 461.957 495.69 466.15 490.707C469.789 486.355 473.35 483.191 476.198 481.134C474.853 481.055 473.746 481.054 472.638 481.054" fill="#037474"/><path d="M478.889 481.292C476.12 482.874 471.769 486.434 467.418 491.655C463.462 496.481 460.376 502.335 459.743 503.838L468.367 503.838L468.445 503.601C469.948 499.092 471.927 494.82 474.3 490.864C476.752 486.909 479.442 483.586 481.341 481.45C480.55 481.371 479.759 481.371 478.889 481.292" fill="#037474"/><path d="M468.524 481.37C465.597 481.766 463.303 482.399 461.8 482.795C459.347 483.507 457.448 484.06 455.075 485.325C453.809 486.037 452.544 486.828 451.437 487.778L450.962 488.173L450.962 496.243C454.76 491.655 458.16 488.411 462.195 485.404C464.173 483.901 466.309 482.636 468.524 481.37" fill="#037474"/><path d="M483.319 481.529C481.499 483.586 478.334 487.145 475.644 491.654C473.35 495.452 471.452 499.566 470.028 503.838L477.781 503.838L477.859 503.68C478.651 500.12 479.678 496.638 480.786 493.236C482.052 489.36 483.635 485.484 485.297 481.766C484.664 481.686 484.031 481.608 483.319 481.529" fill="#037474"/><path d="M486.878 482.004C485.138 485.801 483.555 489.756 482.21 493.711C481.103 497.034 480.154 500.436 479.363 503.838L484.651 503.838C486.143 503.838 487.352 502.629 487.352 501.137L487.352 482.004L486.878 482.004" fill="#037474"/></svg>