<svg xmlns="http://www.w3.org/2000/svg" viewBox="680 670 40 40" width="40" height="40"><path d="M708.437 685.903L691.561 685.903C695.058 682.879 697.718 679.172 699.054 677.139C699.499 676.449 700.499 676.449 700.953 677.139C702.288 679.172 704.941 682.879 708.437 685.903" fill="#037474"/><path d="M698.473 694.667C697.284 695.348 696.085 695.866 695.185 696.184C694.768 696.329 694.495 696.729 694.512 697.175C694.585 698.7 694.413 700.254 694.058 701.825C696.056 699.753 697.546 696.828 698.473 694.667" fill="#EE8B22"/><path d="M704.812 696.184C703.912 695.858 702.715 695.348 701.515 694.649C702.442 696.82 703.941 699.744 705.947 701.824C705.584 700.253 705.421 698.699 705.485 697.173C705.502 696.729 705.229 696.329 704.812 696.184" fill="#EE8B22"/><path d="M700.207 693.841C700.153 693.713 700.044 693.705 699.998 693.705C699.953 693.705 699.844 693.713 699.798 693.841C699.299 695.113 698.518 696.92 697.464 698.71C696.502 700.353 695.32 701.98 693.93 703.187L706.065 703.187C703.15 700.644 701.152 696.283 700.207 693.841" fill="#EE8B22"/><path d="M713.122 701.062C711.87 697.547 711.378 693.804 711.279 690.063L688.716 690.063C688.625 693.805 688.127 697.547 686.873 701.062C686.502 702.098 687.291 703.188 688.391 703.188L692.515 703.188L692.841 702.924C693.422 700.99 693.685 699.072 693.612 697.21C693.576 696.366 694.086 695.612 694.875 695.33C696.029 694.913 697.692 694.203 699.136 693.169C699.164 693.15 699.19 693.142 699.219 693.123C699.419 692.923 699.7 692.797 700 692.797C700.308 692.797 700.581 692.925 700.789 693.133C700.817 693.142 700.844 693.152 700.862 693.17C702.307 694.206 703.977 694.914 705.122 695.331C705.912 695.612 706.43 696.367 706.393 697.212C706.312 699.082 706.576 701 707.166 702.925L707.492 703.189L711.607 703.189C712.706 703.188 713.497 702.098 713.123 701.062L713.122 701.062" fill="#037474"/><path d="M688.018 690.062C687.773 690.062 687.537 690.017 687.328 689.934L683.667 703.06C683.603 703.305 683.739 703.551 683.985 703.623C684.022 703.632 684.067 703.632 684.103 703.632C684.303 703.632 684.484 703.504 684.538 703.305L688.235 690.062L688.018 690.062" fill="#EE8B22"/><path d="M716.33 703.06L712.669 689.936C712.46 690.018 712.233 690.064 711.988 690.064L711.76 690.064L715.457 703.307C715.511 703.507 715.693 703.633 715.893 703.633C715.938 703.633 715.975 703.633 716.021 703.625C716.258 703.551 716.403 703.305 716.33 703.06" fill="#EE8B22"/><path d="M712.946 688.192L712.946 687.773C712.946 687.241 712.515 686.81 711.982 686.81L688.016 686.81C687.483 686.81 687.051 687.241 687.051 687.773L687.051 688.192C687.051 688.724 687.483 689.156 688.016 689.156L711.984 689.156C712.516 689.156 712.946 688.724 712.946 688.192" fill="#037474"/></svg>