<svg xmlns="http://www.w3.org/2000/svg" viewBox="1095 262 40 40" width="40" height="40"><path d="M1115.471 264.71C1114.473 264.709 1113.228 265.091 1112.386 266.306C1111.544 267.521 1111.082 269.619 1111.783 273.108C1112.729 277.824 1114.089 283.429 1114.802 286.383L1116.27 286.383C1116.981 283.412 1118.224 277.771 1119.16 273.111C1119.86 269.621 1119.398 267.524 1118.556 266.308C1117.714 265.092 1116.469 264.71 1115.471 264.71" fill="#037474"/><path d="M1118.771 265.622C1118.864 265.732 1118.954 265.848 1119.041 265.973C1120.005 267.365 1120.457 269.643 1119.737 273.226C1118.813 277.828 1117.594 283.366 1116.875 286.383L1117.771 286.383C1119.104 283.739 1121.022 279.194 1122.934 275.336C1124.506 272.163 1124.283 269.968 1123.401 268.454C1122.518 266.941 1120.923 266.087 1119.677 265.754C1119.4 265.679 1119.093 265.631 1118.771 265.622" fill="#037474"/><path d="M1112.166 265.627C1111.885 265.643 1111.618 265.688 1111.373 265.753C1110.128 266.087 1108.532 266.941 1107.65 268.454C1106.767 269.968 1106.545 272.163 1108.116 275.335C1110.028 279.193 1111.968 283.738 1113.302 286.382L1114.196 286.382C1113.476 283.399 1112.144 277.894 1111.206 273.223C1110.487 269.641 1110.938 267.362 1111.902 265.97C1111.987 265.848 1112.075 265.735 1112.166 265.627" fill="#037474"/><path d="M1124.217 268.773C1124.918 270.428 1124.905 272.684 1123.462 275.597C1121.624 279.307 1119.774 283.672 1118.429 286.383L1119.253 286.383C1120.887 284.153 1122.581 281.349 1124.65 278.586C1126.947 275.519 1127.034 273.18 1126.365 271.469C1125.892 270.26 1125.013 269.354 1124.217 268.773" fill="#037474"/><path d="M1106.834 268.773C1106.038 269.354 1105.159 270.26 1104.686 271.469C1104.017 273.18 1104.104 275.518 1106.401 278.586C1108.469 281.348 1110.186 284.152 1111.821 286.383L1112.644 286.383C1111.298 283.673 1109.428 279.307 1107.589 275.597C1106.146 272.684 1106.133 270.428 1106.834 268.773" fill="#037474"/><path d="M1104.855 284.696C1104.064 284.696 1103.397 285.245 1103.215 285.981C1102.957 285.92 1102.724 285.943 1102.525 285.995C1101.63 286.235 1101.318 287.14 1101.52 287.745L1099.199 287.745C1098.806 287.745 1098.806 288.335 1099.199 288.334L1101.991 288.334C1102.237 288.335 1102.375 288.05 1102.222 287.857C1102.156 287.774 1102.106 287.678 1102.077 287.569C1101.96 287.134 1102.222 286.685 1102.677 286.564C1102.85 286.517 1103.022 286.527 1103.177 286.581C1103.195 286.743 1103.237 286.899 1103.298 287.044C1103.446 287.417 1104.005 287.181 1103.84 286.814C1103.785 286.683 1103.754 286.539 1103.754 286.386C1103.754 285.774 1104.243 285.285 1104.855 285.285C1105.467 285.285 1105.956 285.774 1105.956 286.386C1105.956 286.539 1105.926 286.683 1105.87 286.814C1105.706 287.181 1106.264 287.417 1106.412 287.044C1106.474 286.899 1106.515 286.743 1106.534 286.581C1106.688 286.527 1106.86 286.517 1107.033 286.564C1107.6 286.715 1107.854 287.388 1107.489 287.857C1107.336 288.05 1107.473 288.335 1107.72 288.334L1109.115 288.334C1109.507 288.334 1109.507 287.746 1109.115 287.745L1108.19 287.745C1108.451 286.969 1107.882 286.161 1107.186 285.995C1106.922 285.925 1106.721 285.937 1106.496 285.982C1106.313 285.245 1105.646 284.696 1104.855 284.696" fill="#EE8B22"/><path d="M1111.965 286.971L1111.965 287.675C1111.984 287.812 1112.02 287.935 1112.049 288.063C1112.194 288.377 1112.508 288.591 1112.881 288.591L1118.192 288.591C1118.541 288.591 1118.84 288.403 1118.995 288.122L1119.109 287.64L1119.109 286.971L1111.965 286.971" fill="#037474"/><path d="M1119.522 288.453C1119.393 288.686 1119 288.952 1118.768 289.084L1117.792 293.218L1118.397 293.218L1119.522 288.453" fill="#037474"/><path d="M1111.55 288.508L1112.662 293.218L1113.266 293.218L1112.307 289.155C1111.985 289.086 1111.713 288.796 1111.55 288.508" fill="#037474"/><path d="M1112.66 289.17L1113.885 293.217L1114.5 293.217L1113.933 291.343L1113.268 289.17L1112.66 289.17" fill="#037474"/><path d="M1117.797 289.17L1117.259 290.928L1117.132 291.343L1116.559 293.217L1117.175 293.217L1118.412 289.17L1117.797 289.17" fill="#037474"/><path d="M1113.278 289.181L1117.795 289.181L1113.278 289.181" fill="#037474"/><path d="M1125.536 289.314C1124.745 289.314 1124.078 289.863 1123.895 290.599C1123.625 290.527 1123.406 290.56 1123.205 290.613C1122.34 290.845 1121.991 291.715 1122.201 292.363L1121.276 292.363C1120.867 292.347 1120.867 292.968 1121.276 292.952L1122.671 292.952C1122.917 292.952 1123.054 292.668 1122.902 292.475C1122.836 292.392 1122.787 292.296 1122.757 292.187C1122.641 291.752 1122.903 291.303 1123.358 291.181C1123.531 291.135 1123.703 291.145 1123.858 291.199C1123.876 291.361 1123.917 291.517 1123.979 291.662C1124.127 292.035 1124.685 291.798 1124.521 291.432C1124.465 291.301 1124.434 291.157 1124.434 291.004C1124.434 290.392 1124.924 289.902 1125.536 289.902C1126.148 289.902 1126.638 290.392 1126.638 291.004C1126.638 291.157 1126.606 291.301 1126.551 291.432C1126.398 291.794 1126.941 292.023 1127.093 291.662C1127.155 291.517 1127.196 291.361 1127.214 291.199C1127.369 291.145 1127.541 291.135 1127.714 291.181C1128.169 291.303 1128.431 291.752 1128.314 292.187C1128.285 292.296 1128.236 292.392 1128.17 292.475C1128.018 292.668 1128.155 292.951 1128.4 292.952L1131.192 292.952C1131.359 292.958 1131.498 292.825 1131.498 292.657C1131.498 292.49 1131.359 292.357 1131.192 292.363L1128.87 292.363C1129.14 291.488 1128.536 290.783 1127.867 290.613C1127.591 290.539 1127.401 290.554 1127.176 290.599C1126.994 289.863 1126.327 289.314 1125.536 289.314" fill="#EE8B22"/><path d="M1113.033 293.807C1112.613 293.807 1112.285 294.136 1112.285 294.555L1112.285 294.763L1118.774 294.763L1118.774 294.555C1118.774 294.136 1118.445 293.807 1118.026 293.807L1113.033 293.807" fill="#037474"/><path d="M1112.908 295.352L1112.908 298.854L1118.142 298.854L1118.142 295.352L1116.234 295.352C1116.335 295.667 1116.469 296.112 1116.553 296.534C1116.679 297.161 1116.495 297.604 1116.206 297.812C1115.918 298.019 1115.599 298.008 1115.525 298.008C1115.451 298.008 1115.132 298.02 1114.844 297.812C1114.556 297.604 1114.37 297.161 1114.496 296.534C1114.581 296.112 1114.715 295.667 1114.816 295.352L1112.908 295.352" fill="#037474"/><path d="M1115.435 295.352C1115.341 295.636 1115.167 296.185 1115.074 296.65C1114.975 297.142 1115.087 297.26 1115.188 297.334C1115.29 297.407 1115.453 297.419 1115.525 297.419C1115.597 297.419 1115.76 297.407 1115.862 297.334C1115.964 297.26 1116.075 297.142 1115.976 296.65C1115.883 296.185 1115.709 295.636 1115.615 295.352L1115.435 295.352" fill="#037474"/><path d="M1112.32 295.551C1112.065 295.715 1111.767 295.944 1111.566 296.176C1111.401 296.366 1111.308 296.555 1111.299 296.67C1111.289 296.784 1111.308 296.859 1111.513 296.986C1111.57 297.019 1111.728 297.055 1111.878 296.988C1112.025 296.923 1112.201 296.765 1112.32 296.349L1112.32 295.551" fill="#037474"/><path d="M1118.731 295.551L1118.731 296.349C1118.85 296.765 1119.026 296.923 1119.173 296.988C1119.323 297.054 1119.48 297.019 1119.538 296.986C1119.744 296.859 1119.761 296.785 1119.752 296.67C1119.743 296.555 1119.65 296.366 1119.485 296.176C1119.284 295.945 1118.986 295.716 1118.731 295.551" fill="#037474"/></svg>