<svg xmlns="http://www.w3.org/2000/svg" viewBox="1003 568 40 40" width="40" height="40"><path d="M1031.329 579.48L1029.086 577.238L1029.9 576.424L1031.33 577.854L1033.952 575.24L1034.764 576.055L1031.329 579.48M1031.927 571.514L1031.927 571.514L1031.925 571.514L1031.924 571.514L1027.324 573.047L1027.324 579.183C1027.324 579.183 1027.378 582.021 1031.925 583.784C1036.472 582.021 1036.527 579.183 1036.527 579.183L1036.527 573.047L1031.927 571.514" fill="#EE8B22"/><path d="M1013.203 591.966C1013.203 591.625 1013.422 591.394 1013.775 591.394C1014.128 591.394 1014.346 591.613 1014.346 591.966L1014.346 604.642L1026.816 604.642L1026.816 591.966C1026.816 591.625 1027.035 591.394 1027.388 591.394C1027.729 591.394 1027.959 591.613 1027.959 591.966L1027.959 604.642L1031.926 604.642L1031.926 590.822C1031.926 587.696 1029.37 585.153 1026.256 585.153L1025.113 585.153L1020.588 593.237L1016.257 585.153L1014.918 585.153C1011.792 585.153 1009.249 587.708 1009.249 590.822L1009.249 604.642L1013.215 604.642L1013.215 591.966L1013.203 591.966" fill="#037474"/><path d="M1020.765 583.606C1016.942 583.606 1013.8 580.786 1013.27 577.114C1013.346 577.285 1013.479 577.398 1013.611 577.531C1014.444 578.363 1015.825 578.363 1016.658 577.531C1016.791 577.398 1016.904 577.247 1016.999 577.114C1017.756 575.79 1019.194 574.881 1020.784 574.881C1023.169 574.881 1025.156 576.812 1025.156 579.253C1025.156 581.694 1023.206 583.606 1020.765 583.606" fill="#037474"/><path d="M1018.951 586.789C1018.951 585.886 1019.683 585.153 1020.587 585.153C1021.49 585.153 1022.223 585.886 1022.223 586.789C1022.223 587.692 1021.49 588.425 1020.587 588.425C1019.683 588.425 1018.951 587.693 1018.951 586.789" fill="#037474"/></svg>