<svg xmlns="http://www.w3.org/2000/svg" viewBox="1003 466 40 40" width="40" height="40"><path d="M1029.026 479.86C1029.026 480.707 1028.339 481.395 1027.491 481.395C1026.644 481.395 1025.957 480.707 1025.957 479.86L1025.957 478.326C1025.957 477.478 1026.644 476.791 1027.491 476.791C1028.339 476.791 1029.026 477.478 1029.026 478.326L1029.026 479.86M1029.026 493.672C1029.026 494.52 1028.339 495.207 1027.491 495.207C1026.644 495.207 1025.957 494.52 1025.957 493.672L1025.957 492.137C1025.957 491.29 1026.644 490.603 1027.491 490.603C1028.339 490.603 1029.026 491.29 1029.026 492.137L1029.026 493.672M1036.867 488.071C1036.613 487.999 1036.156 487.827 1035.785 487.498C1035.462 487.211 1035.165 486.778 1035.165 485.999C1035.165 485.219 1035.462 484.786 1035.785 484.499C1036.156 484.17 1036.613 483.998 1036.867 483.926C1037.63 483.711 1038.239 483.004 1038.233 482.118C1038.214 479.332 1037.922 476.972 1036.35 475.465C1035.554 474.702 1034.553 474.276 1033.441 474.035C1032.344 473.798 1031.048 473.722 1029.566 473.722L1016.208 473.722C1014.727 473.722 1013.431 473.798 1012.334 474.035C1011.221 474.276 1010.221 474.702 1009.425 475.465C1007.853 476.972 1007.56 479.332 1007.542 482.118C1007.536 483.004 1008.145 483.711 1008.908 483.926C1009.161 483.998 1009.619 484.17 1009.989 484.499C1010.313 484.786 1010.61 485.219 1010.61 485.999C1010.61 486.778 1010.313 487.211 1009.989 487.498C1009.619 487.827 1009.161 487.999 1008.908 488.071C1008.145 488.286 1007.536 488.993 1007.542 489.88C1007.56 492.665 1007.853 495.025 1009.425 496.532C1010.221 497.296 1011.221 497.722 1012.334 497.962C1013.431 498.2 1014.727 498.276 1016.208 498.276L1029.566 498.276C1031.048 498.276 1032.344 498.2 1033.441 497.962C1034.553 497.722 1035.554 497.296 1036.35 496.532C1037.922 495.025 1038.214 492.665 1038.233 489.88C1038.239 488.993 1037.63 488.286 1036.867 488.071" fill="#037474" fill-rule="evenodd"/><path d="M1029.026 484.464C1029.026 483.616 1028.339 482.929 1027.491 482.929C1026.644 482.929 1025.957 483.616 1025.957 484.464L1025.957 487.533C1025.957 488.381 1026.644 489.068 1027.491 489.068C1028.339 489.068 1029.026 488.381 1029.026 487.533L1029.026 484.464" fill="#EE8B22" fill-rule="evenodd"/></svg>