<svg xmlns="http://www.w3.org/2000/svg" viewBox="1003 262 40 40" width="40" height="40"><path d="M1028.274 292.606C1025.015 294.18 1021.216 293.746 1017.968 292.366C1017.055 291.967 1016.095 291.69 1015.11 291.542L1015.11 267.267L1017.598 267.267L1017.598 278.936C1017.598 279.192 1017.805 279.4 1018.061 279.4C1018.318 279.4 1018.525 279.192 1018.525 278.936L1018.525 267.267L1020.549 267.267L1020.549 273.43C1020.549 273.686 1020.757 273.894 1021.013 273.894C1021.269 273.894 1021.477 273.686 1021.477 273.43L1021.477 267.267L1028.274 267.267L1028.274 292.606" fill="#037474" fill-rule="evenodd"/><path d="M1020.195 298.523C1015.867 298.523 1011.958 297.903 1009.135 296.901C1004.745 295.343 1003.182 292.997 1006.859 290.843C1007.078 290.711 1007.148 290.427 1007.016 290.208C1006.887 289.994 1006.609 289.921 1006.392 290.045C1005.104 290.8 1003.874 291.907 1003.874 293.358C1003.874 295.13 1005.768 296.688 1008.828 297.775C1011.746 298.81 1015.765 299.45 1020.195 299.45C1020.451 299.45 1020.659 299.243 1020.659 298.987C1020.659 298.731 1020.451 298.523 1020.195 298.523" fill="#EE8B22" fill-rule="evenodd"/><path d="M1011.088 290.887C1010.854 290.992 1010.58 290.888 1010.475 290.654C1010.37 290.421 1010.474 290.146 1010.708 290.041C1010.715 290.038 1010.722 290.035 1010.729 290.032C1011.311 289.796 1011.909 289.604 1012.519 289.456C1012.768 289.397 1013.017 289.551 1013.076 289.799C1013.135 290.045 1012.985 290.293 1012.74 290.355C1012.177 290.49 1011.624 290.667 1011.088 290.887" fill="#EE8B22" fill-rule="evenodd"/><path d="M1009.09 293.418C1009.456 295.456 1015.029 296.184 1017.327 296.384C1017.583 296.4 1017.804 296.207 1017.82 295.951C1017.837 295.703 1017.654 295.486 1017.407 295.46C1015.211 295.267 1013.326 294.921 1011.979 294.475C1010.795 294.084 1010.073 293.661 1009.999 293.255C1009.952 293.004 1009.711 292.839 1009.46 292.887C1009.212 292.933 1009.048 293.17 1009.09 293.418" fill="#EE8B22" fill-rule="evenodd"/><path d="M1021.118 296.543C1023.937 296.543 1026.644 296.187 1028.66 295.648C1032.973 294.493 1032.614 292.742 1031.854 292.742C1031.598 292.742 1031.39 292.95 1031.39 293.206C1031.39 293.703 1030.222 294.271 1028.421 294.753C1026.479 295.272 1023.859 295.616 1021.118 295.616C1020.862 295.616 1020.654 295.823 1020.654 296.079C1020.654 296.335 1020.862 296.543 1021.118 296.543" fill="#EE8B22" fill-rule="evenodd"/><path d="M1035.575 293.551C1035.454 294.533 1034.433 295.472 1032.775 296.272C1030.972 297.143 1028.455 297.819 1025.523 298.195C1025.27 298.229 1025.093 298.462 1025.127 298.715C1025.161 298.964 1025.389 299.141 1025.639 299.111C1028.672 298.723 1031.289 298.017 1033.177 297.106C1035.124 296.166 1036.333 294.983 1036.495 293.663C1036.534 293.41 1036.36 293.173 1036.107 293.135C1035.854 293.096 1035.617 293.27 1035.578 293.523C1035.577 293.532 1035.576 293.542 1035.575 293.551" fill="#EE8B22" fill-rule="evenodd"/><path d="M1009.724 265.04C1009.468 265.04 1009.26 264.832 1009.26 264.576C1009.26 264.32 1009.468 264.112 1009.724 264.112L1012.421 264.112C1013.805 264.113 1015.028 265.015 1015.435 266.338L1014.445 266.338C1014.082 265.547 1013.291 265.04 1012.421 265.04L1009.724 265.04" fill="#037474" fill-rule="evenodd"/><path d="M1041.438 264.113C1041.694 264.113 1041.902 264.321 1041.902 264.577C1041.902 264.833 1041.694 265.041 1041.438 265.041L1030.964 265.041C1030.093 265.04 1029.303 265.548 1028.94 266.339L1027.949 266.339C1028.357 265.016 1029.579 264.113 1030.964 264.113L1041.438 264.113" fill="#037474" fill-rule="evenodd"/><path d="M1020.549 276.219L1020.549 277.613C1020.549 277.87 1020.757 278.077 1021.013 278.077C1021.269 278.077 1021.476 277.87 1021.476 277.613L1021.476 276.219C1021.476 275.963 1021.269 275.755 1021.013 275.755C1020.757 275.755 1020.549 275.963 1020.549 276.219" fill="#037474" fill-rule="evenodd"/><path d="M1017.598 281.031L1017.598 282.945C1017.598 283.201 1017.806 283.409 1018.062 283.409C1018.318 283.409 1018.526 283.201 1018.526 282.945L1018.526 281.031C1018.526 280.775 1018.318 280.567 1018.062 280.567C1017.806 280.567 1017.598 280.775 1017.598 281.031" fill="#037474" fill-rule="evenodd"/></svg>