<svg xmlns="http://www.w3.org/2000/svg" viewBox="546.915 291.957 305.487 414.644" width="305.487" height="414.644"><path d="M803.302 445.101C803.22 438.921 800.618 433.118 795.723 428.244C781.259 413.843 766.835 399.402 752.396 384.975C740.785 373.372 729.18 361.764 717.565 350.165C707.21 339.823 692.633 339.77 682.266 350.115C658.221 374.109 634.211 398.138 610.186 422.154C608.117 424.222 606.049 426.292 603.982 428.363C594.023 438.336 593.935 453.047 603.883 463.014C625.008 484.179 646.17 505.307 667.347 526.42C671.389 530.45 673.619 535.131 671.69 540.724C669.558 546.907 665.155 551.358 658.834 553.183C653.614 554.69 649.093 552.746 645.26 548.886C632.236 535.769 619.136 522.728 606.061 509.661C588.191 491.802 570.322 473.942 552.437 456.097C550.48 454.144 548.885 451.996 548.212 449.276C546.915 444.03 548.347 439.575 552.139 435.79C564.565 423.388 576.976 410.973 589.395 398.564C622.763 365.221 656.132 331.877 689.502 298.536C696.087 291.957 703.739 291.958 710.38 298.591C756.173 344.336 801.955 390.093 847.749 435.838C850.43 438.517 852.104 441.7 852.247 445.468C852.402 449.541 850.551 452.884 847.718 455.715C823.691 479.728 799.662 503.74 775.635 527.753C768.669 534.715 761.702 541.675 754.742 548.643C747.97 555.424 740.308 555.421 733.532 548.608C731.975 547.042 730.324 545.559 729.218 543.596C726.247 538.322 727.171 531.886 731.748 527.285C743.526 515.445 755.355 503.656 767.165 491.848C776.703 482.311 786.234 472.766 795.786 463.241C800.61 458.43 803.229 452.688 803.302 445.101" fill="#037474"/><path d="M616.632 632.383C616.541 629.105 618.018 626.688 620.174 624.535C636.937 607.799 653.681 591.043 670.437 574.299C677.654 567.087 684.878 559.882 692.115 552.69C697.114 547.723 702.754 547.707 707.7 552.65C731.673 576.605 755.641 600.565 779.602 624.532C784.505 629.435 784.56 635.084 779.691 639.964C763.463 656.226 747.213 672.466 730.954 688.696C727.073 692.57 722.314 693.27 718.117 690.689C713.026 687.559 710.717 682.501 712.167 677.687C712.696 675.931 713.714 674.509 715 673.225C726.157 662.085 737.297 650.926 748.452 639.784C750.334 637.904 751.596 635.751 751.769 633.036C751.968 629.925 750.931 627.3 748.738 625.108C734.964 611.338 721.204 597.555 707.409 583.805C702.791 579.201 697.08 579.157 692.448 583.765C678.639 597.502 664.868 611.277 651.123 625.078C646.783 629.436 646.884 635.244 651.348 639.725C662.325 650.745 673.338 661.73 684.364 672.701C686.577 674.903 688.147 677.367 688.075 680.587C687.956 685.887 684.64 689.095 680.384 691.308C676.512 693.32 672.422 692.189 668.919 688.695C652.753 672.572 636.605 656.431 620.433 640.313C618.181 638.069 616.49 635.61 616.632 632.383" fill="#A31E22"/><path d="M669.495 447.796C669.582 444.684 671.064 441.067 674.009 438.099C679.336 432.731 684.662 427.364 690.056 422.066C696.268 415.964 705.548 416.013 711.771 422.149C716.951 427.258 722.104 432.398 727.227 437.565C733.972 444.37 734.005 453.42 727.303 460.205C722.29 465.28 717.245 470.325 712.167 475.333C705.388 482.016 696.242 481.97 689.505 475.265C684.448 470.233 679.386 465.207 674.36 460.144C671.037 456.796 669.488 453.11 669.495 447.796" fill="#1959A6"/><path d="M672.206 415.643C673.529 417.011 674.352 416.938 675.651 415.611C681.138 410.005 686.721 404.494 692.276 398.956C697.731 393.518 704.087 393.542 709.577 399.022C715.533 404.966 721.504 410.895 727.411 416.888C728.494 417.987 729.185 418.14 730.34 416.955C734.819 412.359 739.373 407.835 743.95 403.336C744.95 402.352 745.188 401.674 744.065 400.558C732.28 388.846 720.543 377.085 708.781 365.349C706.609 363.182 703.951 362.123 701.055 362.082C697.645 362.114 694.941 363.361 692.667 365.636C681.475 376.833 670.292 388.038 659.057 399.191C657.804 400.436 657.777 401.238 659.052 402.478C663.499 406.803 667.894 411.184 672.206 415.643" fill="#EE8B22"/><path d="M668.589 475.242C662.681 469.45 656.866 463.563 651.013 457.714C645.456 452.16 645.422 445.788 650.946 440.251C656.538 434.646 662.122 429.032 667.767 423.48C668.883 422.383 668.964 421.662 667.805 420.531C663.21 416.047 658.673 411.503 654.176 406.923C653.159 405.888 652.478 405.772 651.396 406.859C640.023 418.285 628.61 429.671 617.207 441.066C615.077 443.194 614.16 445.833 613.907 449.014C614.125 451.768 614.97 454.482 617.175 456.682C628.94 468.423 640.701 480.168 652.417 491.956C653.581 493.127 654.297 492.995 655.366 491.891C659.734 487.383 664.133 482.904 668.61 478.507C669.883 477.257 669.857 476.485 668.589 475.242" fill="#EE8B22"/><path d="M784.545 441.065C773.506 430.008 762.436 418.981 751.424 407.898C750.265 406.732 749.57 406.857 748.486 407.963C744.043 412.499 739.558 416.995 734.994 421.409C733.74 422.623 733.876 423.353 735.041 424.495C740.287 429.64 745.466 434.854 750.654 440.057C756.419 445.84 756.424 452.029 750.654 457.829C745.169 463.342 739.692 468.863 734.133 474.3C732.846 475.559 732.893 476.334 734.157 477.562C738.71 481.987 743.183 486.495 747.633 491.025C748.587 491.996 749.217 492.096 750.233 491.075C761.655 479.595 773.126 468.163 784.561 456.695C786.664 454.586 787.766 452.009 787.701 448.987C787.77 445.9 786.718 443.242 784.545 441.065" fill="#EE8B22"/><path d="M729.559 482.231C728.189 480.801 727.422 481.009 726.155 482.304C720.816 487.758 715.375 493.113 709.974 498.507C708.809 499.67 707.599 500.777 706.137 501.561C701.594 503.998 696.705 503.243 692.62 499.257C687.157 493.928 681.779 488.51 676.426 483.07C675.284 481.909 674.559 481.783 673.344 483.037C668.977 487.545 664.516 491.964 660.027 496.352C658.892 497.461 658.651 498.204 659.918 499.459C671.016 510.454 682.055 521.51 693.108 532.55C695.238 534.678 697.843 535.66 701.259 535.778C704.118 535.715 706.842 534.426 709.18 532.078C720.255 520.958 731.351 509.86 742.499 498.815C743.848 497.477 744.062 496.663 742.574 495.24C738.143 490.999 733.802 486.659 729.559 482.231" fill="#EE8B22"/><path d="M699.887 684.139C704.336 684.11 711.031 690.838 710.961 695.267C710.959 695.409 710.955 695.552 710.943 695.693C710.663 699.137 704.198 705.883 700.794 706.336C698.808 706.601 697.098 705.889 695.645 704.722C693.651 703.122 691.792 701.33 690.253 699.277C688.428 696.842 688.309 693.732 690.065 691.3C691.733 688.992 693.831 687.037 696.064 685.268C697.147 684.41 698.494 684.116 699.887 684.139" fill="#EE8B22"/><path d="M633.548 581.89C630.272 585.269 626.94 588.596 623.563 591.875C619.505 595.815 613.843 595.921 609.71 592.029C606.181 588.705 602.747 585.271 599.427 581.739C595.55 577.614 595.689 571.954 599.646 567.891C602.88 564.57 606.189 561.321 609.472 558.048C611.43 556.096 613.76 555.016 616.57 555.104C619.297 555.013 621.602 556.029 623.513 557.904C626.923 561.251 630.355 564.581 633.647 568.042C637.556 572.149 637.488 577.826 633.548 581.89M647.447 568.32C639.415 560.212 631.402 552.082 623.209 544.138C619.372 540.418 613.619 540.542 609.841 544.245C601.845 552.085 593.916 559.995 586.071 567.985C582.086 572.044 582.032 577.773 585.999 581.835C593.772 589.796 601.633 597.675 609.606 605.435C613.764 609.483 619.493 609.402 623.634 605.342C631.529 597.601 639.3 589.735 647.106 581.903C648.946 580.057 649.897 577.796 649.955 575.175C649.998 572.57 649.282 570.172 647.447 568.32" fill="#1959A6"/><path d="M800.364 581.751C797.006 585.25 793.579 588.687 790.078 592.041C786.173 595.781 780.462 595.851 776.538 592.154C772.957 588.78 769.48 585.289 766.091 581.723C762.387 577.825 762.255 572.327 765.909 568.361C769.385 564.588 773.108 561.038 776.805 557.475C778.566 555.778 780.784 555.006 783.074 555.101C785.81 555.053 788.059 555.867 789.874 557.642C793.443 561.133 797.024 564.616 800.462 568.234C804.174 572.139 804.112 577.845 800.364 581.751M813.868 568.085C806.034 560.081 798.106 552.169 790.109 544.327C786.182 540.477 780.341 540.478 776.404 544.336C768.406 552.175 760.53 560.139 752.624 568.073C750.781 569.922 749.865 572.196 749.86 575.099C749.818 577.528 750.727 579.868 752.635 581.78C760.495 589.657 768.331 597.559 776.257 605.37C780.352 609.406 786.162 609.416 790.263 605.382C798.145 597.628 805.969 589.813 813.732 581.941C817.702 577.916 817.8 572.103 813.868 568.085" fill="#1959A6"/></svg>