<?xml version="1.0" encoding="UTF-8"?>
<svg id="Layer_2" data-name="Layer 2" xmlns="http://www.w3.org/2000/svg" viewBox="0 0 312.41 312.41">
  <defs>
    <style>
      .cls-1 {
        fill: #EE8B22;
      }

      .cls-2 {
        fill: #037474;
      }

      .cls-3 {
        fill: #1959A6;
      }
    </style>
  </defs>
  <g id="Layer_1-2" data-name="Layer 1">
    <g>
      <g id="_Radial_Repeat_" data-name="&amp;lt;Radial Repeat&amp;gt;">
        <path class="cls-2" d="M152.25,256.49c1.16,0,2.4.14,3.73.42l56.91,14.16-4.23,11.51-.91,3.7c-2.08,7.26-7.88,13.62-16.18,11.56l-.85-.21-.33,1.32c-2.31,8.74-7.4,11.81-16.02,9.66-4.41-1.1-7.32-2.95-8.89-5.68-1.57-2.71-1.78-6.24-.65-10.79l.21-.85-2.64-.66c-6.18-2.11-10.48-6.48-10.79-10.91-.04-.58-.46-1.08-1.02-1.22-.67-.13-1.28.17-1.54.72l-16.25,33.19-23.68-5.89,2.11-8.47,10.65,2.65c1-3.4,4.53-5.45,7.99-4.58l.85.21.45-1.83c5.94-23.88,9.46-38.01,21.08-38.01ZM209.75,272.74l-54.31-13.52c-11.42-2.43-14.74,6.74-21.98,35.85l-1.03,4.13-3.15-.78c-2.3-.57-4.63.83-5.19,3.12l-.5,2.03-10.65-2.65-.97,3.88,19.53,4.86,15.41-31.46c.73-1.51,2.4-2.34,4.05-2.02,1.76.43,2.89,1.78,3,3.39.24,3.44,3.98,7.06,9.1,8.81l4.84,1.2-.78,3.15c-.98,3.92-.85,6.87.4,9.03,1.24,2.14,3.66,3.63,7.41,4.57,7.28,1.82,11.21-.57,13.16-7.95l.9-3.61,3.15.78c7.25,1.81,11.7-4.2,13.32-9.88l.94-3.78,3.36-9.15Z"/>
        <g>
          <g>
            <path class="cls-1" d="M67.56,229.56l11.73,2.89c.36.15,4.93,2.45,2.74,11.26l-1.43,2.97-1.51-.74,1.37-2.8c1.78-7.22-1.6-9.04-1.74-9.12l-11.35-2.81c-.97.03-2.54,1.1-3.78,2.76-1.86,2.49-2.54,5.53-1.79,8.13,1.69,5.92.97,10.63.94,10.83l-.08.24c-4.04,8.11-14.43,8.79-19.76,8.55,5.39,1.94,12.55,1.06,12.64,1.05l1.88-.24-1.08,1.55c-1.45,2.08.62,5.49.64,5.52.03.04,1.6,2.2,2.82,4.57,1.29,2.49,1.26,6.81,1.26,6.99l-1.68-.02s.03-4.08-1.07-6.21c-1.16-2.25-2.7-4.39-2.71-4.41-.12-.19-1.97-3.23-1.28-5.97-3.12.22-10.51.34-15.07-2.84l-.47-.33.44-1.75.76.12c.16.03,16.22,2.39,21.15-7.23.1-.76.52-4.95-.91-9.99-.88-3.11-.11-6.7,2.06-9.6,1.59-2.12,3.58-3.4,5.32-3.41Z"/>
            <path class="cls-1" d="M81.4,243.23l-.74,3.27c-.02.09-.48,2.35,1.32,4.58.29.3,8.28,8.74,3.96,17.5h0s-.68,1.93-2.89,2.8c-2.09.83-4.76.43-7.93-1.18-.79,2.48-3.73,4.13-3.89,4.21-.06.03-2.42,1.19-4.5,2.64-1.97,1.37-3.84,4.95-3.86,4.98l-1.49-.77c.08-.16,2.08-3.99,4.39-5.59,2.19-1.52,4.58-2.7,4.69-2.75,0,0,3.68-2.11,3.11-4.45-.15-.62-.5-1.59-.87-2.62-.8-2.22-1.28-3.63-1.21-4.42-.02-.1-.45-6.13,7.25-15.12l2.68-3.09ZM80.73,270.12c.61,0,1.17-.1,1.67-.29,1.5-.58,1.98-1.85,2-1.9,3.84-7.8-3.6-15.66-3.67-15.74-1.03-1.27-1.49-2.56-1.68-3.62-6.19,7.74-5.9,12.83-5.89,12.88-.04.62.68,2.63,1.11,3.84.39,1.07.75,2.08.93,2.79.02.08.04.17.05.25l.37.25c1.92,1.01,3.66,1.54,5.11,1.54Z"/>
            <polygon class="cls-1" points="57.53 260.4 73.38 264.34 72.98 265.97 58.08 262.27 56.25 264.2 55.03 263.04 57.53 260.4"/>
          </g>
          <path class="cls-1" d="M60.68,280.55c.31,0,.62.04.93.11,1,.25,1.84.87,2.37,1.76s.69,1.92.44,2.92h0c-.51,2.06-2.61,3.32-4.67,2.81-1-.25-1.84-.87-2.37-1.76-.53-.88-.69-1.92-.44-2.92.44-1.75,2.02-2.93,3.74-2.93ZM62.79,284.93h0c.14-.56.05-1.15-.25-1.65-.3-.5-.78-.85-1.34-.99-1.17-.3-2.34.42-2.63,1.59-.14.56-.05,1.15.25,1.65.3.5.77.85,1.34.99,1.16.29,2.35-.42,2.64-1.58Z"/>
          <path class="cls-3" d="M112.51,258.62c1.92,0,3.76.99,4.87,2.81,1.06,1.73,2.1,3.47,3.14,5.21,1.77,2.98.95,6.32-1.99,8.11-1.7,1.04-3.4,2.06-5.11,3.07-2.98,1.76-6.32.93-8.11-2.04-1.11-1.84-2.1-3.47-3.07-5.1-.88-1.48-1.09-3-.65-4.76v-.04c.36-1.26,1.28-2.41,2.53-3.17,1.8-1.09,3.6-2.18,5.42-3.25.95-.56,1.98-.83,2.98-.83ZM110.29,275.78c.53,0,1.08-.16,1.62-.49,1.7-1.01,3.39-2.02,5.08-3.05,1.58-.96,1.96-2.5,1-4.1-1.03-1.73-2.07-3.46-3.12-5.18-.85-1.39-2.47-1.79-3.85-.98-1.8,1.06-3.59,2.15-5.38,3.24-.61.37-1.06.9-1.21,1.43-.25,1.01-.16,1.71.33,2.52.97,1.63,1.95,3.25,2.93,4.87.71,1.17,1.62,1.74,2.61,1.74Z"/>
          <path class="cls-3" d="M37.23,225.91c2.23,0,4.28,1.31,5.23,3.56.79,1.86,1.57,3.74,2.34,5.61,1.31,3.21.01,6.39-3.17,7.73-1.83.77-3.67,1.54-5.51,2.29-3.21,1.31-6.38-.02-7.72-3.21l-2.29-5.49c-.66-1.6-.64-3.12.06-4.81l.02-.04c.53-1.19,1.61-2.2,2.96-2.77,1.94-.82,3.89-1.63,5.84-2.42.74-.3,1.5-.45,2.24-.45ZM33.7,242.66c.42,0,.86-.09,1.32-.28,1.83-.74,3.65-1.5,5.47-2.27,1.71-.72,2.3-2.19,1.59-3.91-.77-1.86-1.54-3.72-2.33-5.58-.64-1.5-2.18-2.14-3.66-1.54-1.94.79-3.87,1.6-5.8,2.41-.65.27-1.18.74-1.41,1.24-.39.96-.41,1.68-.05,2.55l2.28,5.48c.52,1.24,1.46,1.9,2.59,1.9Z"/>
        </g>
      </g>
      <g id="_Radial_Repeat_-2" data-name="&amp;lt;Radial Repeat&amp;gt;">
        <path class="cls-2" d="M55.92,152.25c0,1.16-.14,2.4-.42,3.73l-14.16,56.91-11.51-4.23-3.7-.91c-7.26-2.08-13.62-7.88-11.56-16.18l.21-.85-1.32-.33c-8.74-2.31-11.81-7.4-9.66-16.02,1.1-4.41,2.95-7.32,5.68-8.89,2.71-1.57,6.24-1.78,10.79-.65l.85.21.66-2.64c2.11-6.18,6.48-10.48,10.91-10.79.58-.04,1.08-.46,1.22-1.02.13-.67-.17-1.28-.72-1.54L0,132.79l5.89-23.68,8.47,2.11-2.65,10.65c3.4,1,5.45,4.53,4.58,7.99l-.21.85,1.83.45c23.88,5.94,38.01,9.46,38.01,21.08ZM39.67,209.75l13.52-54.31c2.43-11.42-6.74-14.74-35.85-21.98l-4.13-1.03.78-3.15c.57-2.3-.83-4.63-3.12-5.19l-2.03-.5,2.65-10.65-3.88-.97-4.86,19.53,31.46,15.41c1.51.73,2.34,2.4,2.02,4.05-.43,1.76-1.78,2.89-3.39,3-3.44.24-7.06,3.98-8.81,9.1l-1.2,4.84-3.15-.78c-3.92-.98-6.87-.85-9.03.4-2.14,1.24-3.63,3.66-4.57,7.41-1.82,7.28.57,11.21,7.95,13.16l3.61.9-.78,3.15c-1.81,7.25,4.2,11.7,9.88,13.32l3.78.94,9.15,3.36Z"/>
        <g>
          <g>
            <path class="cls-1" d="M82.86,67.56l-2.89,11.73c-.15.36-2.45,4.93-11.26,2.74l-2.97-1.43.74-1.51,2.8,1.37c7.22,1.78,9.04-1.6,9.12-1.74l2.81-11.35c-.03-.97-1.1-2.54-2.76-3.78-2.49-1.86-5.53-2.54-8.13-1.79-5.92,1.69-10.63.97-10.83.94l-.24-.08c-8.11-4.04-8.79-14.43-8.55-19.76-1.94,5.39-1.06,12.55-1.05,12.64l.24,1.88-1.55-1.08c-2.08-1.45-5.49.62-5.52.64-.04.03-2.2,1.6-4.57,2.82-2.49,1.29-6.81,1.26-6.99,1.26l.02-1.68s4.08.03,6.21-1.07c2.25-1.16,4.39-2.7,4.41-2.71.19-.12,3.23-1.97,5.97-1.28-.22-3.12-.34-10.51,2.84-15.07l.33-.47,1.75.44-.12.76c-.03.16-2.39,16.22,7.23,21.15.76.1,4.95.52,9.99-.91,3.11-.88,6.7-.11,9.6,2.06,2.12,1.59,3.4,3.58,3.41,5.32Z"/>
            <path class="cls-1" d="M69.18,81.4l-3.27-.74c-.09-.02-2.35-.48-4.58,1.32-.3.29-8.74,8.28-17.5,3.96h0s-1.93-.68-2.8-2.89c-.83-2.09-.43-4.76,1.18-7.93-2.48-.79-4.13-3.73-4.21-3.89-.03-.06-1.19-2.42-2.64-4.5-1.37-1.97-4.95-3.84-4.98-3.86l.77-1.49c.16.08,3.99,2.08,5.59,4.39,1.52,2.19,2.7,4.58,2.75,4.69,0,0,2.11,3.68,4.45,3.11.62-.15,1.59-.5,2.62-.87,2.22-.8,3.63-1.28,4.42-1.21.1-.02,6.13-.45,15.12,7.25l3.09,2.68ZM42.3,80.72c0,.61.1,1.17.29,1.67.58,1.5,1.85,1.98,1.9,2,7.8,3.84,15.66-3.6,15.74-3.67,1.27-1.03,2.56-1.49,3.62-1.68-7.74-6.19-12.83-5.9-12.88-5.89-.62-.04-2.63.68-3.84,1.11-1.07.39-2.08.75-2.79.93-.08.02-.17.04-.25.05l-.25.37c-1.01,1.92-1.54,3.66-1.54,5.11Z"/>
            <polygon class="cls-1" points="52.02 57.53 48.07 73.38 46.44 72.97 50.15 58.08 48.22 56.25 49.37 55.03 52.02 57.53"/>
          </g>
          <path class="cls-1" d="M31.87,60.68c0,.31-.04.62-.11.93-.25,1-.87,1.84-1.76,2.37s-1.92.69-2.92.44h0c-2.06-.51-3.32-2.61-2.81-4.67.25-1,.87-1.84,1.76-2.37.88-.53,1.92-.69,2.92-.44,1.75.44,2.93,2.02,2.93,3.74ZM27.48,62.79h0c.56.14,1.15.05,1.65-.25.5-.3.85-.78.99-1.34.3-1.17-.42-2.34-1.59-2.63-.56-.14-1.15-.05-1.65.25-.5.3-.85.77-.99,1.34-.29,1.16.42,2.35,1.58,2.64Z"/>
          <path class="cls-3" d="M53.8,112.51c0,1.92-.99,3.76-2.81,4.87-1.73,1.06-3.47,2.1-5.21,3.14-2.98,1.77-6.32.95-8.11-1.99-1.04-1.7-2.06-3.4-3.07-5.11-1.76-2.98-.93-6.32,2.04-8.11,1.84-1.11,3.47-2.1,5.1-3.07,1.48-.88,3-1.09,4.76-.65h.04c1.26.36,2.41,1.28,3.17,2.53,1.09,1.8,2.18,3.6,3.25,5.42.56.95.83,1.98.83,2.98ZM36.64,110.29c0,.53.16,1.08.49,1.62,1.01,1.7,2.02,3.39,3.05,5.08.96,1.58,2.5,1.96,4.1,1,1.73-1.03,3.46-2.07,5.18-3.12,1.39-.85,1.79-2.47.98-3.85-1.06-1.8-2.15-3.59-3.24-5.38-.37-.61-.9-1.06-1.43-1.21-1.01-.25-1.71-.16-2.52.33-1.63.97-3.25,1.95-4.87,2.93-1.17.71-1.74,1.62-1.74,2.61Z"/>
          <path class="cls-3" d="M86.5,37.23c0,2.23-1.31,4.28-3.56,5.23-1.86.79-3.74,1.57-5.61,2.34-3.21,1.31-6.39.01-7.73-3.17-.77-1.83-1.54-3.67-2.29-5.51-1.31-3.21.02-6.38,3.21-7.72l5.49-2.29c1.6-.66,3.12-.64,4.81.06l.04.02c1.19.53,2.2,1.61,2.77,2.96.82,1.94,1.63,3.89,2.42,5.84.3.74.45,1.5.45,2.24ZM69.76,33.7c0,.42.09.86.28,1.32.74,1.83,1.5,3.65,2.27,5.47.72,1.71,2.19,2.3,3.91,1.59,1.86-.77,3.72-1.54,5.58-2.33,1.5-.64,2.14-2.18,1.54-3.66-.79-1.94-1.6-3.87-2.41-5.8-.27-.65-.74-1.18-1.24-1.41-.96-.39-1.68-.41-2.55-.05l-5.48,2.28c-1.24.52-1.9,1.46-1.9,2.59Z"/>
        </g>
      </g>
      <g id="_Radial_Repeat_-3" data-name="&amp;lt;Radial Repeat&amp;gt;">
        <path class="cls-2" d="M160.17,55.92c-1.16,0-2.4-.14-3.73-.42l-56.91-14.16,4.23-11.51.91-3.7c2.08-7.26,7.88-13.62,16.18-11.56l.85.21.33-1.32c2.31-8.74,7.4-11.81,16.02-9.66,4.41,1.1,7.32,2.95,8.89,5.68,1.57,2.71,1.78,6.24.65,10.79l-.21.85,2.64.66c6.18,2.11,10.48,6.48,10.79,10.91.04.58.46,1.08,1.02,1.22.67.13,1.28-.17,1.54-.72L179.62,0l23.68,5.89-2.11,8.47-10.65-2.65c-1,3.4-4.53,5.45-7.99,4.58l-.85-.21-.45,1.83c-5.94,23.88-9.46,38.01-21.08,38.01ZM102.66,39.67l54.31,13.52c11.42,2.43,14.74-6.74,21.98-35.85l1.03-4.13,3.15.78c2.3.57,4.63-.83,5.19-3.12l.5-2.03,10.65,2.65.97-3.88-19.53-4.86-15.41,31.46c-.73,1.51-2.4,2.34-4.05,2.02-1.76-.43-2.89-1.78-3-3.39-.24-3.44-3.98-7.06-9.1-8.81l-4.84-1.2.78-3.15c.98-3.92.85-6.87-.4-9.03-1.24-2.14-3.66-3.63-7.41-4.57-7.28-1.82-11.21.57-13.16,7.95l-.9,3.61-3.15-.78c-7.25-1.81-11.7,4.2-13.32,9.88l-.94,3.78-3.36,9.15Z"/>
        <g>
          <g>
            <path class="cls-1" d="M244.85,82.86l-11.73-2.89c-.36-.15-4.93-2.45-2.74-11.26l1.43-2.97,1.51.74-1.37,2.8c-1.78,7.22,1.6,9.04,1.74,9.12l11.35,2.81c.97-.03,2.54-1.1,3.78-2.76,1.86-2.49,2.54-5.53,1.79-8.13-1.69-5.92-.97-10.63-.94-10.83l.08-.24c4.04-8.11,14.43-8.79,19.76-8.55-5.39-1.94-12.55-1.06-12.64-1.05l-1.88.24,1.08-1.55c1.45-2.08-.62-5.49-.64-5.52-.03-.04-1.6-2.2-2.82-4.57-1.29-2.49-1.26-6.81-1.26-6.99l1.68.02s-.03,4.08,1.07,6.21c1.16,2.25,2.7,4.39,2.71,4.41.12.19,1.97,3.23,1.28,5.97,3.12-.22,10.51-.34,15.07,2.84l.47.33-.44,1.75-.76-.12c-.16-.03-16.22-2.39-21.15,7.23-.1.76-.52,4.95.91,9.99.88,3.11.11,6.7-2.06,9.6-1.59,2.12-3.58,3.4-5.32,3.41Z"/>
            <path class="cls-1" d="M231.01,69.18l.74-3.27c.02-.09.48-2.35-1.32-4.58-.29-.3-8.28-8.74-3.96-17.5h0s.68-1.93,2.89-2.8c2.09-.83,4.76-.43,7.93,1.18.79-2.48,3.73-4.13,3.89-4.21.06-.03,2.42-1.19,4.5-2.64,1.97-1.37,3.84-4.95,3.86-4.98l1.49.77c-.08.16-2.08,3.99-4.39,5.59-2.19,1.52-4.58,2.7-4.69,2.75,0,0-3.68,2.11-3.11,4.45.15.62.5,1.59.87,2.62.8,2.22,1.28,3.63,1.21,4.42.02.1.45,6.13-7.25,15.12l-2.68,3.09ZM231.69,42.3c-.61,0-1.17.1-1.67.29-1.5.58-1.98,1.85-2,1.9-3.84,7.8,3.6,15.66,3.67,15.74,1.03,1.27,1.49,2.56,1.68,3.62,6.19-7.74,5.9-12.83,5.89-12.88.04-.62-.68-2.63-1.11-3.84-.39-1.07-.75-2.08-.93-2.79-.02-.08-.04-.17-.05-.25l-.37-.25c-1.92-1.01-3.66-1.54-5.11-1.54Z"/>
            <polygon class="cls-1" points="254.88 52.02 239.03 48.07 239.44 46.44 254.33 50.15 256.16 48.22 257.38 49.37 254.88 52.02"/>
          </g>
          <path class="cls-1" d="M251.73,31.87c-.31,0-.62-.04-.93-.11-1-.25-1.84-.87-2.37-1.76s-.69-1.92-.44-2.92h0c.51-2.06,2.61-3.32,4.67-2.81,1,.25,1.84.87,2.37,1.76.53.88.69,1.92.44,2.92-.44,1.75-2.02,2.93-3.74,2.93ZM249.62,27.48h0c-.14.56-.05,1.15.25,1.65.3.5.78.85,1.34.99,1.17.3,2.34-.42,2.63-1.59.14-.56.05-1.15-.25-1.65-.3-.5-.77-.85-1.34-.99-1.16-.29-2.35.42-2.64,1.58Z"/>
          <path class="cls-3" d="M199.9,53.8c-1.92,0-3.76-.99-4.87-2.81-1.06-1.73-2.1-3.47-3.14-5.21-1.77-2.98-.95-6.32,1.99-8.11,1.7-1.04,3.4-2.06,5.11-3.07,2.98-1.76,6.32-.93,8.11,2.04,1.11,1.84,2.1,3.47,3.07,5.1.88,1.48,1.09,3,.65,4.76v.04c-.36,1.26-1.28,2.41-2.53,3.17-1.8,1.09-3.6,2.18-5.42,3.25-.95.56-1.98.83-2.98.83ZM202.12,36.64c-.53,0-1.08.16-1.62.49-1.7,1.01-3.39,2.02-5.08,3.05-1.58.96-1.96,2.5-1,4.1,1.03,1.73,2.07,3.46,3.12,5.18.85,1.39,2.47,1.79,3.85.98,1.8-1.06,3.59-2.15,5.38-3.24.61-.37,1.06-.9,1.21-1.43.25-1.01.16-1.71-.33-2.52-.97-1.63-1.95-3.25-2.93-4.87-.71-1.17-1.62-1.74-2.61-1.74Z"/>
          <path class="cls-3" d="M275.19,86.5c-2.23,0-4.28-1.31-5.23-3.56-.79-1.86-1.57-3.74-2.34-5.61-1.31-3.21-.01-6.39,3.17-7.73,1.83-.77,3.67-1.54,5.51-2.29,3.21-1.31,6.38.02,7.72,3.21l2.29,5.49c.66,1.6.64,3.12-.06,4.81l-.02.04c-.53,1.19-1.61,2.2-2.96,2.77-1.94.82-3.89,1.63-5.84,2.42-.74.3-1.5.45-2.24.45ZM278.72,69.76c-.42,0-.86.09-1.32.28-1.83.74-3.65,1.5-5.47,2.27-1.71.72-2.3,2.19-1.59,3.91.77,1.86,1.54,3.72,2.33,5.58.64,1.5,2.18,2.14,3.66,1.54,1.94-.79,3.87-1.6,5.8-2.41.65-.27,1.18-.74,1.41-1.24.39-.96.41-1.68.05-2.55l-2.28-5.48c-.52-1.24-1.46-1.9-2.59-1.9Z"/>
        </g>
      </g>
      <g id="_Radial_Repeat_-4" data-name="&amp;lt;Radial Repeat&amp;gt;">
        <path class="cls-2" d="M256.49,160.17c0-1.16.14-2.4.42-3.73l14.16-56.91,11.51,4.23,3.7.91c7.26,2.08,13.62,7.88,11.56,16.18l-.21.85,1.32.33c8.74,2.31,11.81,7.4,9.66,16.02-1.1,4.41-2.95,7.32-5.68,8.89-2.71,1.57-6.24,1.78-10.79.65l-.85-.21-.66,2.64c-2.11,6.18-6.48,10.48-10.91,10.79-.58.04-1.08.46-1.22,1.02-.13.67.17,1.28.72,1.54l33.19,16.25-5.89,23.68-8.47-2.11,2.65-10.65c-3.4-1-5.45-4.53-4.58-7.99l.21-.85-1.83-.45c-23.88-5.94-38.01-9.46-38.01-21.08ZM272.74,102.66l-13.52,54.31c-2.43,11.42,6.74,14.74,35.85,21.98l4.13,1.03-.78,3.15c-.57,2.3.83,4.63,3.12,5.19l2.03.5-2.65,10.65,3.88.97,4.86-19.53-31.46-15.41c-1.51-.73-2.34-2.4-2.02-4.05.43-1.76,1.78-2.89,3.39-3,3.44-.24,7.06-3.98,8.81-9.1l1.2-4.84,3.15.78c3.92.98,6.87.85,9.03-.4,2.14-1.24,3.63-3.66,4.57-7.41,1.82-7.28-.57-11.21-7.95-13.16l-3.61-.9.78-3.15c1.81-7.25-4.2-11.7-9.88-13.32l-3.78-.94-9.15-3.36Z"/>
        <g>
          <g>
            <path class="cls-1" d="M229.56,244.85l2.89-11.73c.15-.36,2.45-4.93,11.26-2.74l2.97,1.43-.74,1.51-2.8-1.37c-7.22-1.78-9.04,1.6-9.12,1.74l-2.81,11.35c.03.97,1.1,2.54,2.76,3.78,2.49,1.86,5.53,2.54,8.13,1.79,5.92-1.69,10.63-.97,10.83-.94l.24.08c8.11,4.04,8.79,14.43,8.55,19.76,1.94-5.39,1.06-12.55,1.05-12.64l-.24-1.88,1.55,1.08c2.08,1.45,5.49-.62,5.52-.64.04-.03,2.2-1.6,4.57-2.82,2.49-1.29,6.81-1.26,6.99-1.26l-.02,1.68s-4.08-.03-6.21,1.07c-2.25,1.16-4.39,2.7-4.41,2.71-.19.12-3.23,1.97-5.97,1.28.22,3.12.34,10.51-2.84,15.07l-.33.47-1.75-.44.12-.76c.03-.16,2.39-16.22-7.23-21.15-.76-.1-4.95-.52-9.99.91-3.11.88-6.7.11-9.6-2.06-2.12-1.59-3.4-3.58-3.41-5.32Z"/>
            <path class="cls-1" d="M243.23,231.01l3.27.74c.09.02,2.35.48,4.58-1.32.3-.29,8.74-8.28,17.5-3.96h0s1.93.68,2.8,2.89c.83,2.09.43,4.76-1.18,7.93,2.48.79,4.13,3.73,4.21,3.89.03.06,1.19,2.42,2.64,4.5,1.37,1.97,4.95,3.84,4.98,3.86l-.77,1.49c-.16-.08-3.99-2.08-5.59-4.39-1.52-2.19-2.7-4.58-2.75-4.69,0,0-2.11-3.68-4.45-3.11-.62.15-1.59.5-2.62.87-2.22.8-3.63,1.28-4.42,1.21-.1.02-6.13.45-15.12-7.25l-3.09-2.68ZM270.12,231.69c0-.61-.1-1.17-.29-1.67-.58-1.5-1.85-1.98-1.9-2-7.8-3.84-15.66,3.6-15.74,3.67-1.27,1.03-2.56,1.49-3.62,1.68,7.74,6.19,12.83,5.9,12.88,5.89.62.04,2.63-.68,3.84-1.11,1.07-.39,2.08-.75,2.79-.93.08-.02.17-.04.25-.05l.25-.37c1.01-1.92,1.54-3.66,1.54-5.11Z"/>
            <polygon class="cls-1" points="260.4 254.88 264.34 239.03 265.97 239.44 262.26 254.33 264.2 256.16 263.04 257.38 260.4 254.88"/>
          </g>
          <path class="cls-1" d="M280.55,251.73c0-.31.04-.62.11-.93.25-1,.87-1.84,1.76-2.37s1.92-.69,2.92-.44h0c2.06.51,3.32,2.61,2.81,4.67-.25,1-.87,1.84-1.76,2.37-.88.53-1.92.69-2.92.44-1.75-.44-2.93-2.02-2.93-3.74ZM284.93,249.62h0c-.56-.14-1.15-.05-1.65.25-.5.3-.85.78-.99,1.34-.3,1.17.42,2.34,1.59,2.63.56.14,1.15.05,1.65-.25.5-.3.85-.77.99-1.34.29-1.16-.42-2.35-1.58-2.64Z"/>
          <path class="cls-3" d="M258.62,199.9c0-1.92.99-3.76,2.81-4.87,1.73-1.06,3.47-2.1,5.21-3.14,2.98-1.77,6.32-.95,8.11,1.99,1.04,1.7,2.06,3.4,3.07,5.11,1.76,2.98.93,6.32-2.04,8.11-1.84,1.11-3.47,2.1-5.1,3.07-1.48.88-3,1.09-4.76.65h-.04c-1.26-.36-2.41-1.28-3.17-2.53-1.09-1.8-2.18-3.6-3.25-5.42-.56-.95-.83-1.98-.83-2.98ZM275.78,202.12c0-.53-.16-1.08-.49-1.62-1.01-1.7-2.02-3.39-3.05-5.08-.96-1.58-2.5-1.96-4.1-1-1.73,1.03-3.46,2.07-5.18,3.12-1.39.85-1.79,2.47-.98,3.85,1.06,1.8,2.15,3.59,3.24,5.38.37.61.9,1.06,1.43,1.21,1.01.25,1.71.16,2.52-.33,1.63-.97,3.25-1.95,4.87-2.93,1.17-.71,1.74-1.62,1.74-2.61Z"/>
          <path class="cls-3" d="M225.91,275.19c0-2.23,1.31-4.28,3.56-5.23,1.86-.79,3.74-1.57,5.61-2.34,3.21-1.31,6.39-.01,7.73,3.17.77,1.83,1.54,3.67,2.29,5.51,1.31,3.21-.02,6.38-3.21,7.72l-5.49,2.29c-1.6.66-3.12.64-4.81-.06l-.04-.02c-1.19-.53-2.2-1.61-2.77-2.96-.82-1.94-1.63-3.89-2.42-5.84-.3-.74-.45-1.5-.45-2.24ZM242.66,278.72c0-.42-.09-.86-.28-1.32-.74-1.83-1.5-3.65-2.27-5.47-.72-1.71-2.19-2.3-3.91-1.59-1.86.77-3.72,1.54-5.58,2.33-1.5.64-2.14,2.18-1.54,3.66.79,1.94,1.6,3.87,2.41,5.8.27.65.74,1.18,1.24,1.41.96.39,1.68.41,2.55.05l5.48-2.28c1.24-.52,1.9-1.46,1.9-2.59Z"/>
        </g>
      </g>
    </g>
  </g>
</svg>